<?xml version="1.0" encoding="utf-8"?>
<!-- Generator: Adobe Illustrator 27.5.0, SVG Export Plug-In . SVG Version: 6.00 Build 0)  -->
<svg version="1.1" id="Слой_1" xmlns="http://www.w3.org/2000/svg" xmlns:xlink="http://www.w3.org/1999/xlink" x="0px" y="0px"
	 viewBox="0 0 60 60" style="enable-background:new 0 0 60 60;" xml:space="preserve">
<style type="text/css">
	.st0{clip-path:url(#SVGID_00000001622807098221567810000013041031949396623488_);}
	.st1{fill:#D3844A;}
</style>
<g>
	<defs>
		<rect id="SVGID_1_" width="60" height="60"/>
	</defs>
	<clipPath id="SVGID_00000171710813305470465550000003879043083932629682_">
		<use xlink:href="#SVGID_1_"  style="overflow:visible;"/>
	</clipPath>
	<g style="clip-path:url(#SVGID_00000171710813305470465550000003879043083932629682_);">
		<path class="st1" d="M46.2,60.1c-3.7,0-7.2-1.4-9.8-4c-2.6-2.6-4-6.1-4-9.8c0-3.7,1.4-7.2,4-9.8c2.6-2.6,6.1-4,9.8-4
			s7.2,1.4,9.8,4c2.6,2.6,4,6.1,4,9.8c0,3.7-1.4,7.2-4,9.8C53.4,58.6,49.9,60.1,46.2,60.1z M46.2,35.1c-3,0-5.8,1.2-7.9,3.3
			c-2.1,2.1-3.3,4.9-3.3,7.9c0,3,1.2,5.8,3.3,7.9c2.1,2.1,4.9,3.3,7.9,3.3s5.8-1.2,7.9-3.3c2.1-2.1,3.3-4.9,3.3-7.9
			c0-3-1.2-5.8-3.3-7.9C52,36.2,49.2,35.1,46.2,35.1z"/>
		<path class="st1" d="M46.2,53.8c-0.7,0-1.3-0.6-1.3-1.3v-4.9H40c-0.7,0-1.3-0.6-1.3-1.3s0.6-1.3,1.3-1.3h4.9V40
			c0-0.7,0.6-1.3,1.3-1.3s1.3,0.6,1.3,1.3v4.9h4.9c0.7,0,1.3,0.6,1.3,1.3s-0.6,1.3-1.3,1.3h-4.9v4.9C47.6,53.2,47,53.8,46.2,53.8z"
			/>
		<path class="st1" d="M27.5,50.1H1.2c-0.4,0-0.7-0.1-0.9-0.4c-0.2-0.2-0.4-0.6-0.4-0.9c0-0.3,0.1-6.9,1.3-10.6
			c1-2.9,5.6-4.5,11.5-6.4c1.6-0.5,3.1-1,4.7-1.6v-4.6c-1.2-0.8-3.4-2.9-3.7-7.3c-0.9-0.6-1.5-1.8-1.5-3.4c0-0.9,0.2-1.7,0.5-2.3
			c0.2-0.4,0.4-0.7,0.7-0.9c-0.6-1.9-1.5-5.3,0.2-7.1c0.7-0.8,1.7-1.1,3-1.1c1.5-2.5,5.6-3.5,8.9-3.5c0,0,0,0,0,0
			c3.8,0,8.6,1.2,9.4,4.6c0.7,2.8-0.3,5.4-0.9,7c0.7,0.7,1.2,1.8,1.2,3.3c0,0.9-0.2,1.7-0.5,2.4c-0.3,0.5-0.6,0.9-1,1.1
			c-0.3,4.4-2.5,6.5-3.7,7.3v4.6c1.6,0.6,3.2,1.1,4.8,1.7l0.5,0.2l-0.8,2.5L34,34.3c-1.9-0.6-3.8-1.3-5.8-2
			c-0.5-0.2-0.8-0.7-0.8-1.2v-6.2c0-0.5,0.3-1,0.8-1.2c0.1,0,2.9-1.4,2.9-6.3c0-0.7,0.5-1.2,1.2-1.3c0.1-0.2,0.3-0.6,0.3-1.3
			c0-0.7-0.2-1.1-0.3-1.3c-0.7-0.1-1.2-0.6-1.2-1.3c0-0.4,0.1-0.7,0.4-1.4c0.5-1.2,1.4-3.5,0.9-5.6c-0.4-1.5-3.3-2.6-6.8-2.6
			c0,0,0,0,0,0c-3.5,0-6.5,1.1-6.9,2.6c-0.2,0.7-0.8,1.1-1.5,1c-0.8-0.2-1.4-0.1-1.6,0.1C14.9,7,15.7,10,16,11
			c0.2,0.6,0.3,1,0.3,1.3c0,0.7-0.5,1.3-1.2,1.3c-0.1,0.1-0.3,0.5-0.3,1.2s0.2,1.1,0.3,1.2c0.7,0.1,1.2,0.6,1.2,1.3
			c0,4.9,2.8,6.2,3,6.3c0.5,0.2,0.8,0.7,0.8,1.2v6.2c0,0.5-0.3,1-0.8,1.2c-1.9,0.7-3.8,1.3-5.6,2c-4.3,1.4-9.3,3.1-9.8,4.7
			c-0.8,2.4-1.1,6.4-1.1,8.5h24.9V50.1z"/>
	</g>
</g>
</svg>
