<?xml version="1.0" encoding="utf-8"?>
<!-- Generator: Adobe Illustrator 27.5.0, SVG Export Plug-In . SVG Version: 6.00 Build 0)  -->
<svg version="1.1" id="Слой_1" xmlns="http://www.w3.org/2000/svg" xmlns:xlink="http://www.w3.org/1999/xlink" x="0px" y="0px"
	 viewBox="0 0 255 199" style="enable-background:new 0 0 255 199;" xml:space="preserve">
<style type="text/css">
	.st0{opacity:0.8;}
	.st1{fill:#FFFFFF;filter:url(#Adobe_OpacityMaskFilter);}
	.st2{mask:url(#path-1-inside-1_1_353_00000134952470309241087670000017338983811371539876_);fill:#4A99D3;}
	.st3{fill:#FFFFFF;filter:url(#Adobe_OpacityMaskFilter_00000059276967984641999000000007967115162448300211_);}
	.st4{mask:url(#path-2-inside-2_1_353_00000096031638904641305540000009013367584208225677_);fill:#4A99D3;}
	.st5{fill:#FFFFFF;filter:url(#Adobe_OpacityMaskFilter_00000033350435958535846870000013420010385854196116_);}
	.st6{mask:url(#path-3-inside-3_1_353_00000004516705713118638200000011798460873738317754_);fill:#4A99D3;}
</style>
<g class="st0">
	<defs>
		<filter id="Adobe_OpacityMaskFilter" filterUnits="userSpaceOnUse" x="107.7" y="41.1" width="153.3" height="130.6">
			<feColorMatrix  type="matrix" values="1 0 0 0 0  0 1 0 0 0  0 0 1 0 0  0 0 0 1 0"/>
		</filter>
	</defs>
	
		<mask maskUnits="userSpaceOnUse" x="107.7" y="41.1" width="153.3" height="130.6" id="path-1-inside-1_1_353_00000134952470309241087670000017338983811371539876_">
		<path class="st1" d="M251,165.7H117.7c-2.2,0-4-1.8-4-4V51.1c0-2.2,1.8-4,4-4H251c2.2,0,4,1.8,4,4v110.6
			C255,163.9,253.2,165.7,251,165.7z"/>
	</mask>
	<path class="st2" d="M251,171.7H117.7c-5.5,0-10-4.5-10-10V51.1c0-5.5,4.5-10,10-10H251c5.5,0,10,4.5,10,10v110.6
		C261,167.2,256.5,171.7,251,171.7z M119.7,159.7H249V53.1H119.7V159.7z"/>
	<defs>
		
			<filter id="Adobe_OpacityMaskFilter_00000107590874376133217710000017239841082935082413_" filterUnits="userSpaceOnUse" x="-6" y="-6" width="153.3" height="130.6">
			<feColorMatrix  type="matrix" values="1 0 0 0 0  0 1 0 0 0  0 0 1 0 0  0 0 0 1 0"/>
		</filter>
	</defs>
	
		<mask maskUnits="userSpaceOnUse" x="-6" y="-6" width="153.3" height="130.6" id="path-2-inside-2_1_353_00000096031638904641305540000009013367584208225677_">
		<path style="fill:#FFFFFF;filter:url(#Adobe_OpacityMaskFilter_00000107590874376133217710000017239841082935082413_);" d="
			M137.3,118.6H4c-2.2,0-4-1.8-4-4V4c0-2.2,1.8-4,4-4h133.3c2.2,0,4,1.8,4,4v110.6C141.3,116.8,139.5,118.6,137.3,118.6z"/>
	</mask>
	<path class="st4" d="M137.3,124.6H4c-5.5,0-10-4.5-10-10V4C-6-1.5-1.5-6,4-6h133.3c5.5,0,10,4.5,10,10v110.6
		C147.3,120.1,142.8,124.6,137.3,124.6z M6,112.6h129.3V6H6V112.6z"/>
	<defs>
		
			<filter id="Adobe_OpacityMaskFilter_00000176750031636609864390000000515153432142475163_" filterUnits="userSpaceOnUse" x="73.2" y="71.6" width="157.3" height="134.6">
			<feColorMatrix  type="matrix" values="1 0 0 0 0  0 1 0 0 0  0 0 1 0 0  0 0 0 1 0"/>
		</filter>
	</defs>
	
		<mask maskUnits="userSpaceOnUse" x="73.2" y="71.6" width="157.3" height="134.6" id="path-3-inside-3_1_353_00000004516705713118638200000011798460873738317754_">
		<path style="fill:#FFFFFF;filter:url(#Adobe_OpacityMaskFilter_00000176750031636609864390000000515153432142475163_);" d="
			M218.5,198.2H85.2c-2.2,0-4-1.8-4-4V83.6c0-2.2,1.8-4,4-4h133.3c2.2,0,4,1.8,4,4v110.6C222.5,196.4,220.7,198.2,218.5,198.2z"/>
	</mask>
	<path class="st6" d="M218.5,206.2H85.2c-6.6,0-12-5.4-12-12V83.6c0-6.6,5.4-12,12-12h133.3c6.6,0,12,5.4,12,12v110.6
		C230.5,200.8,225.1,206.2,218.5,206.2z M89.2,190.2h125.3V87.6H89.2V190.2z"/>
</g>
</svg>
