<svg aria-hidden="true" version="1.1" xmlns="http://www.w3.org/2000/svg" xmlns:xlink="http://www.w3.org/1999/xlink">
<defs>
<symbol id="icon-facebook" viewBox="0 0 15 32">
<path d="M9.345 31.351v-15.061h4.157l0.551-5.19h-4.708l0.007-2.598c0-1.354 0.129-2.079 2.073-2.079h2.599v-5.191h-4.158c-4.994 0-6.752 2.518-6.752 6.752v3.116h-3.113v5.19h3.113v15.060h6.231z"></path>
</symbol>
<symbol id="icon-instagram" viewBox="0 0 30 32">
<path d="M15.060 1.233c-4.090 0-4.603 0.018-6.209 0.091-1.603 0.073-2.697 0.327-3.655 0.7-0.99 0.385-1.831 0.899-2.668 1.736s-1.352 1.677-1.738 2.667c-0.373 0.958-0.627 2.052-0.7 3.655-0.072 1.606-0.091 2.12-0.091 6.21s0.018 4.601 0.091 6.208c0.074 1.603 0.328 2.697 0.7 3.655 0.385 0.99 0.899 1.831 1.737 2.667s1.677 1.353 2.667 1.738c0.958 0.372 2.053 0.626 3.656 0.699 1.606 0.073 2.119 0.091 6.209 0.091s4.602-0.018 6.208-0.091c1.603-0.073 2.699-0.327 3.657-0.699 0.99-0.385 1.829-0.901 2.666-1.738s1.352-1.677 1.738-2.667c0.37-0.958 0.624-2.052 0.7-3.655 0.072-1.606 0.091-2.118 0.091-6.208s-0.019-4.603-0.091-6.209c-0.075-1.603-0.329-2.697-0.7-3.655-0.386-0.99-0.9-1.831-1.738-2.668s-1.675-1.352-2.667-1.736c-0.96-0.372-2.055-0.626-3.658-0.7-1.606-0.073-2.118-0.091-6.209-0.091h0.005zM13.71 3.947c0.401-0.001 0.848 0 1.351 0 4.021 0 4.497 0.014 6.085 0.087 1.468 0.067 2.265 0.312 2.796 0.519 0.703 0.273 1.204 0.599 1.731 1.126s0.853 1.029 1.127 1.732c0.206 0.53 0.452 1.327 0.519 2.795 0.072 1.587 0.088 2.064 0.088 6.083s-0.016 4.496-0.088 6.083c-0.067 1.468-0.312 2.265-0.519 2.795-0.273 0.703-0.6 1.203-1.127 1.73s-1.028 0.853-1.731 1.126c-0.53 0.207-1.328 0.452-2.796 0.519-1.587 0.072-2.064 0.088-6.085 0.088s-4.498-0.016-6.085-0.088c-1.468-0.068-2.265-0.313-2.796-0.519-0.703-0.273-1.205-0.599-1.732-1.126s-0.853-1.028-1.127-1.731c-0.206-0.53-0.452-1.327-0.519-2.795-0.072-1.587-0.087-2.064-0.087-6.086s0.014-4.496 0.087-6.083c0.067-1.468 0.312-2.265 0.519-2.796 0.273-0.703 0.6-1.205 1.127-1.732s1.029-0.853 1.732-1.127c0.531-0.207 1.328-0.452 2.796-0.519 1.389-0.063 1.928-0.082 4.734-0.085v0.004zM23.099 6.448c-0.998 0-1.807 0.808-1.807 1.806s0.809 1.807 1.807 1.807 1.807-0.809 1.807-1.807c0-0.998-0.809-1.807-1.807-1.807v0.001zM15.060 8.559c-4.271 0-7.733 3.463-7.733 7.733s3.463 7.732 7.733 7.732c4.271 0 7.732-3.461 7.732-7.732s-3.462-7.733-7.732-7.733h0zM15.060 11.273c2.772 0 5.020 2.247 5.020 5.020s-2.248 5.020-5.020 5.020c-2.772 0-5.020-2.248-5.020-5.020s2.247-5.020 5.020-5.020z"></path>
</symbol>
<symbol id="icon-twitter" viewBox="0 0 38 32">
<path d="M18.7 9.245l0.079 1.303-1.317-0.159c-4.793-0.611-8.98-2.685-12.535-6.168l-1.738-1.728-0.448 1.276c-0.948 2.845-0.342 5.849 1.633 7.869 1.053 1.117 0.816 1.276-1.001 0.611-0.632-0.213-1.185-0.372-1.238-0.292-0.184 0.186 0.448 2.605 0.948 3.562 0.685 1.329 2.080 2.632 3.608 3.403l1.29 0.612-1.527 0.027c-1.475 0-1.527 0.027-1.369 0.585 0.527 1.728 2.607 3.562 4.924 4.36l1.633 0.558-1.422 0.851c-2.107 1.223-4.582 1.914-7.057 1.967-1.185 0.027-2.159 0.133-2.159 0.213 0 0.266 3.213 1.755 5.082 2.339 5.609 1.728 12.271 0.984 17.275-1.967 3.555-2.1 7.11-6.274 8.769-10.315 0.895-2.153 1.791-6.088 1.791-7.976 0-1.223 0.079-1.382 1.554-2.845 0.869-0.851 1.685-1.781 1.843-2.047 0.263-0.505 0.237-0.505-1.106-0.053-2.238 0.798-2.554 0.691-1.448-0.505 0.816-0.851 1.791-2.393 1.791-2.845 0-0.080-0.395 0.053-0.843 0.292-0.474 0.266-1.527 0.665-2.317 0.904l-1.422 0.452-1.29-0.877c-0.711-0.479-1.712-1.010-2.238-1.17-1.343-0.372-3.397-0.319-4.608 0.106-3.292 1.196-5.372 4.28-5.135 7.657z"></path>
</symbol>
<symbol id="icon-youtube" viewBox="0 0 43 32">
<path d="M41.027 5.936c-0.482-1.851-1.902-3.309-3.705-3.804-3.268-0.899-16.371-0.899-16.371-0.899s-13.103 0-16.371 0.899c-1.803 0.495-3.223 1.953-3.705 3.804-0.875 3.355-0.875 10.356-0.875 10.356s0 7 0.875 10.356c0.482 1.851 1.902 3.309 3.705 3.804 3.268 0.899 16.371 0.899 16.371 0.899s13.103 0 16.371-0.899c1.803-0.495 3.223-1.953 3.705-3.804 0.876-3.355 0.876-10.356 0.876-10.356s0-7.001-0.876-10.356z"></path>
<path fill="#533e2d" d="M17.023 23.494v-13.095l10.476 6.548-10.476 6.547z"></path>
</symbol>

<symbol id="icon-how-create" viewBox="0 0 32 32">
<path d="M24.64 32.053c-1.973 0-3.84-0.747-5.227-2.133s-2.133-3.253-2.133-5.227c0-1.973 0.747-3.84 2.133-5.227s3.253-2.133 5.227-2.133 3.84 0.747 5.227 2.133c1.387 1.387 2.133 3.253 2.133 5.227s-0.747 3.84-2.133 5.227c-1.387 1.333-3.253 2.133-5.227 2.133zM24.64 18.72c-1.6 0-3.093 0.64-4.213 1.76s-1.76 2.613-1.76 4.213c0 1.6 0.64 3.093 1.76 4.213s2.613 1.76 4.213 1.76 3.093-0.64 4.213-1.76c1.12-1.12 1.76-2.613 1.76-4.213s-0.64-3.093-1.76-4.213c-1.12-1.173-2.613-1.76-4.213-1.76z"></path>
<path d="M24.64 28.693c-0.373 0-0.693-0.32-0.693-0.693v-2.613h-2.613c-0.373 0-0.693-0.32-0.693-0.693s0.32-0.693 0.693-0.693h2.613v-2.667c0-0.373 0.32-0.693 0.693-0.693s0.693 0.32 0.693 0.693v2.613h2.613c0.373 0 0.693 0.32 0.693 0.693s-0.32 0.693-0.693 0.693h-2.613v2.613c0.053 0.427-0.267 0.747-0.693 0.747z"></path>
<path d="M14.667 26.72h-14.027c-0.213 0-0.373-0.053-0.48-0.213-0.107-0.107-0.213-0.32-0.213-0.48s0.053-3.68 0.693-5.653c0.533-1.547 2.987-2.4 6.133-3.413 0.853-0.267 1.653-0.533 2.507-0.853v-2.453c-0.64-0.427-1.813-1.547-1.973-3.893-0.48-0.32-0.8-0.96-0.8-1.813 0-0.48 0.107-0.907 0.267-1.227 0.107-0.213 0.213-0.373 0.373-0.48-0.32-1.013-0.8-2.827 0.107-3.787 0.373-0.427 0.907-0.587 1.6-0.587 0.8-1.333 2.987-1.867 4.747-1.867 0 0 0 0 0 0 2.027 0 4.587 0.64 5.013 2.453 0.373 1.493-0.16 2.88-0.48 3.733 0.373 0.373 0.64 0.96 0.64 1.76 0 0.48-0.107 0.907-0.267 1.28-0.16 0.267-0.32 0.48-0.533 0.587-0.16 2.347-1.333 3.467-1.973 3.893v2.453c0.853 0.32 1.707 0.587 2.56 0.907l0.267 0.107-0.427 1.333-0.267-0.213c-1.013-0.32-2.027-0.693-3.093-1.067-0.267-0.107-0.427-0.373-0.427-0.64v-3.307c0-0.267 0.16-0.533 0.427-0.64 0.053 0 1.547-0.747 1.547-3.36 0-0.373 0.267-0.64 0.64-0.693 0.053-0.107 0.16-0.32 0.16-0.693s-0.107-0.587-0.16-0.693c-0.373-0.053-0.64-0.32-0.64-0.693 0-0.213 0.053-0.373 0.213-0.747 0.267-0.64 0.747-1.867 0.48-2.987-0.213-0.8-1.76-1.387-3.627-1.387 0 0 0 0 0 0-1.867 0-3.467 0.587-3.68 1.387-0.107 0.373-0.427 0.587-0.8 0.533-0.427-0.107-0.747-0.053-0.853 0.053-0.373 0.373 0.053 1.973 0.213 2.507 0.107 0.32 0.16 0.533 0.16 0.693 0 0.373-0.267 0.693-0.64 0.693-0.053 0.053-0.16 0.267-0.16 0.64s0.107 0.587 0.16 0.64c0.373 0.053 0.64 0.32 0.64 0.693 0 2.613 1.493 3.307 1.6 3.36 0.267 0.107 0.427 0.373 0.427 0.64v3.307c0 0.267-0.16 0.533-0.427 0.64-1.013 0.373-2.027 0.693-2.987 1.067-2.293 0.747-4.96 1.653-5.227 2.507-0.427 1.28-0.587 3.413-0.587 4.533h13.28v1.44z"></path>
</symbol>
<symbol id="icon-how-enjoy" viewBox="0 0 32 32">
<path d="M16 31.68c-2.048 0-4.096-0.384-6.016-1.216s-3.648-1.92-5.056-3.392c-1.472-1.472-2.624-3.2-3.392-5.056-0.768-1.92-1.216-3.904-1.216-6.016 0-4.16 1.6-8.128 4.608-11.072 2.944-3.008 6.912-4.608 11.072-4.608s8.128 1.6 11.072 4.608c2.944 2.944 4.608 6.912 4.608 11.072 0 2.048-0.384 4.096-1.216 6.016s-1.92 3.648-3.392 5.056c-1.472 1.472-3.2 2.624-5.056 3.392s-3.968 1.216-6.016 1.216zM16 2.88c-3.52 0-6.784 1.344-9.28 3.84s-3.84 5.76-3.84 9.28c0 1.728 0.32 3.392 1.024 4.992 0.64 1.6 1.6 3.008 2.816 4.288 1.216 1.216 2.624 2.176 4.288 2.816 3.2 1.344 6.848 1.344 10.048 0 1.6-0.64 3.008-1.6 4.288-2.816 1.216-1.216 2.176-2.688 2.816-4.288s1.024-3.264 1.024-4.992c0-3.52-1.344-6.784-3.84-9.28-2.56-2.496-5.824-3.84-9.344-3.84zM16 23.68c-2.048 0-3.968-0.768-5.44-2.24-0.384-0.384-0.448-0.896-0.256-1.408 0.192-0.448 0.64-0.768 1.152-0.768h9.024c0.512 0 0.96 0.32 1.152 0.768s0.064 1.024-0.256 1.408c-1.408 1.472-3.328 2.24-5.376 2.24zM20.8 14.080c-0.704 0-1.28-0.576-1.28-1.28s0.576-1.28 1.28-1.28v0c0.704 0 1.28 0.576 1.28 1.28s-0.576 1.28-1.28 1.28zM11.2 14.080c-0.704 0-1.28-0.576-1.28-1.28s0.576-1.28 1.28-1.28v0c0.704 0 1.28 0.576 1.28 1.28s-0.576 1.28-1.28 1.28z"></path>
</symbol>
<symbol id="icon-how-get" viewBox="0 0 27 32">
<path d="M11.407 16.656l-2.878-2.878-1.567 1.567 4.444 4.444 8.889-8.889-1.567-1.567-7.322 7.322z"></path>
<path d="M13.63 31.556l-6.862-3.659c-1.956-1.041-3.592-2.595-4.732-4.495s-1.741-4.075-1.739-6.291v-14.444c0.001-0.589 0.235-1.154 0.652-1.571s0.981-0.651 1.571-0.652h22.222c0.589 0.001 1.154 0.235 1.571 0.652s0.651 0.982 0.651 1.571v14.444c0.002 2.216-0.599 4.391-1.739 6.291s-2.776 3.454-4.732 4.495l-6.862 3.659zM2.519 2.667v14.444c-0.002 1.813 0.49 3.592 1.423 5.147s2.272 2.826 3.872 3.677l5.816 3.101 5.816-3.1c1.601-0.851 2.94-2.123 3.873-3.678s1.425-3.334 1.423-5.148v-14.444h-22.222z"></path>
</symbol>
</defs>
</svg>
