<?xml version="1.0" encoding="utf-8"?>
<!-- Generator: Adobe Illustrator 27.5.0, SVG Export Plug-In . SVG Version: 6.00 Build 0)  -->
<svg version="1.1" id="Слой_1" xmlns="http://www.w3.org/2000/svg" xmlns:xlink="http://www.w3.org/1999/xlink" x="0px" y="0px"
	 viewBox="0 0 50 50" style="enable-background:new 0 0 50 50;" xml:space="preserve">
<style type="text/css">
	.st0{fill:#D3844A;}
</style>
<path class="st0" d="M25,49.5c-3.2,0-6.4-0.6-9.4-1.9s-5.7-3-7.9-5.3c-2.3-2.3-4.1-5-5.3-7.9c-1.2-3-1.9-6.1-1.9-9.4
	c0-6.5,2.5-12.7,7.2-17.3C12.3,3,18.5,0.5,25,0.5c6.5,0,12.7,2.5,17.3,7.2c4.6,4.6,7.2,10.8,7.2,17.3c0,3.2-0.6,6.4-1.9,9.4
	s-3,5.7-5.3,7.9c-2.3,2.3-5,4.1-7.9,5.3S28.2,49.5,25,49.5z M25,4.5c-5.5,0-10.6,2.1-14.5,6c-3.9,3.9-6,9-6,14.5
	c0,2.7,0.5,5.3,1.6,7.8c1,2.5,2.5,4.7,4.4,6.7c1.9,1.9,4.1,3.4,6.7,4.4c5,2.1,10.7,2.1,15.7,0c2.5-1,4.7-2.5,6.7-4.4
	c1.9-1.9,3.4-4.2,4.4-6.7c1-2.5,1.6-5.1,1.6-7.8c0-5.5-2.1-10.6-6-14.5C35.6,6.6,30.5,4.5,25,4.5z M25,37c-3.2,0-6.2-1.2-8.5-3.5
	c-0.6-0.6-0.7-1.4-0.4-2.2c0.3-0.7,1-1.2,1.8-1.2h14.1c0.8,0,1.5,0.5,1.8,1.2c0.3,0.7,0.1,1.6-0.4,2.2C31.2,35.8,28.2,37,25,37z
	 M32.5,22c-1.1,0-2-0.9-2-2s0.9-2,2-2h0c1.1,0,2,0.9,2,2S33.6,22,32.5,22z M17.5,22c-1.1,0-2-0.9-2-2s0.9-2,2-2h0c1.1,0,2,0.9,2,2
	S18.6,22,17.5,22z"/>
</svg>
