<svg width="46" height="54" viewBox="0 0 46 54" fill="none" xmlns="http://www.w3.org/2000/svg">
<path d="M19.25 28.1063L14.3937 23.25L11.75 25.8937L19.25 33.3937L34.25 18.3937L31.6063 15.75L19.25 28.1063Z" fill="#D3844A"/>
<path d="M23 53.25L11.42 47.0756C8.11876 45.3193 5.35808 42.6972 3.43424 39.4907C1.5104 36.2842 0.496038 32.6144 0.500012 28.875V4.5C0.501004 3.50574 0.896412 2.55249 1.59946 1.84945C2.3025 1.1464 3.25575 0.750993 4.25001 0.75H41.75C42.7443 0.750993 43.6975 1.1464 44.4006 1.84945C45.1036 2.55249 45.499 3.50574 45.5 4.5V28.875C45.504 32.6144 44.4896 36.2842 42.5658 39.4907C40.6419 42.6972 37.8813 45.3193 34.58 47.0756L23 53.25ZM4.25001 4.5V28.875C4.2469 31.9346 5.07708 34.9373 6.65144 37.5608C8.22581 40.1843 10.4849 42.3296 13.1863 43.7663L23 48.9994L32.8138 43.7681C35.5154 42.3313 37.7747 40.1858 39.3491 37.5619C40.9234 34.9381 41.7535 31.935 41.75 28.875V4.5H4.25001Z" fill="#D3844A"/>
</svg>
